<svg xmlns="http://www.w3.org/2000/svg" version="1.1" viewBox="0.00 0.00 270.00 255.00" width="270.00" height="255.00">
<g stroke-width="2.00" fill="none" stroke-linecap="butt">
<path stroke="#a5d8fd" d="&#10;  M 73.79 87.92&#10;  Q 76.07 87.93 77.80 89.20&#10;  Q 82.92 92.97 80.43 99.79&#10;  A 0.09 0.09 0.0 0 0 80.51 99.92&#10;  Q 83.34 100.31 86.57 99.81&#10;  Q 86.80 99.78 86.84 99.55&#10;  Q 88.81 88.08 79.05 83.18&#10;  Q 77.06 82.18 73.79 82.18&#10;  Q 70.52 82.17 68.53 83.17&#10;  Q 58.77 88.06 60.72 99.53&#10;  Q 60.76 99.76 60.99 99.79&#10;  Q 64.22 100.29 67.05 99.91&#10;  A 0.09 0.09 0.0 0 0 67.13 99.78&#10;  Q 64.65 92.96 69.77 89.19&#10;  Q 71.51 87.93 73.79 87.92"/>
<path stroke="#a5d8fd" d="&#10;  M 76.9448 95.6083&#10;  A 0.58 0.58 0.0 0 0 76.3628 95.0303&#10;  L 70.8028 95.0498&#10;  A 0.58 0.58 0.0 0 0 70.2248 95.6318&#10;  L 70.2752 110.0717&#10;  A 0.58 0.58 0.0 0 0 70.8572 110.6497&#10;  L 76.4172 110.6302&#10;  A 0.58 0.58 0.0 0 0 76.9952 110.0482&#10;  L 76.9448 95.6083"/>
<path stroke="#9a9a9a" d="&#10;  M 189.7822 101.0278&#10;  A 0.68 0.68 0.0 0 0 189.1011 100.3490&#10;  L 187.9211 100.3510&#10;  A 0.68 0.68 0.0 0 0 187.2423 101.0322&#10;  L 187.2778 121.3722&#10;  A 0.68 0.68 0.0 0 0 187.9589 122.0510&#10;  L 189.1389 122.0490&#10;  A 0.68 0.68 0.0 0 0 189.8177 121.3678&#10;  L 189.7822 101.0278"/>
<path stroke="#9a9a9a" d="&#10;  M 134.57 112.80&#10;  L 142.75 112.80&#10;  A 3.12 3.11 0.0 0 1 145.87 115.91&#10;  L 145.87 121.15&#10;  A 0.90 0.90 0.0 0 0 146.77 122.05&#10;  L 148.14 122.05&#10;  Q 148.63 122.05 148.66 121.55&#10;  C 148.87 117.98 148.88 114.54 146.27 111.84&#10;  Q 145.87 111.44 146.31 111.08&#10;  Q 149.59 108.41 148.59 104.90&#10;  C 148.09 103.15 146.31 101.37 144.56 101.16&#10;  Q 139.25 100.53 132.58 101.11&#10;  A 0.58 0.58 0.0 0 0 132.06 101.69&#10;  L 132.06 121.42&#10;  A 0.85 0.85 0.0 0 0 132.91 122.27&#10;  L 133.38 122.27&#10;  Q 133.94 122.27 133.94 121.71&#10;  L 133.94 113.43&#10;  Q 133.94 112.80 134.57 112.80"/>
<path stroke="#9a9a9a" d="&#10;  M 205.09 102.03&#10;  A 1.06 1.06 0.0 0 0 204.03 100.97&#10;  A 1.06 1.06 0.0 0 0 202.97 102.03&#10;  A 1.06 1.06 0.0 0 0 204.03 103.09&#10;  A 1.06 1.06 0.0 0 0 205.09 102.03"/>
<path stroke="#9a9a9a" d="&#10;  M 193.85 106.45&#10;  Q 193.34 106.32 192.84 106.37&#10;  A 0.59 0.59 0.0 0 0 192.30 106.96&#10;  L 192.30 108.11&#10;  Q 192.30 108.66 192.86 108.66&#10;  L 194.24 108.66&#10;  A 0.62 0.61 -89.1 0 1 194.85 109.30&#10;  Q 194.55 116.29 195.03 120.77&#10;  Q 195.16 122.00 196.39 121.99&#10;  Q 198.17 121.98 199.51 121.83&#10;  Q 200.05 121.77 200.01 120.99&#10;  Q 199.97 120.33 199.31 120.33&#10;  L 198.05 120.33&#10;  Q 197.15 120.33 197.15 119.43&#10;  L 197.15 109.29&#10;  A 0.64 0.63 0.0 0 1 197.79 108.66&#10;  L 199.07 108.66&#10;  A 0.83 0.83 0.0 0 0 199.90 107.83&#10;  L 199.90 107.11&#10;  Q 199.90 106.43 199.22 106.43&#10;  L 197.66 106.43&#10;  Q 197.00 106.43 197.00 105.77&#10;  L 197.00 102.95&#10;  A 1.03 1.03 0.0 0 0 195.97 101.92&#10;  L 195.37 101.92&#10;  Q 194.48 101.92 194.48 102.81&#10;  L 194.48 105.95&#10;  Q 194.48 106.60 193.85 106.45"/>
<path stroke="#a5d8fd" d="&#10;  M 105.44 157.57&#10;  Q 115.11 150.12 113.58 138.29&#10;  Q 112.62 130.89 111.88 126.53&#10;  C 110.15 116.31 103.50 107.25 92.91 105.15&#10;  Q 87.92 104.16 81.74 104.40&#10;  A 0.57 0.57 0.0 0 0 81.20 104.97&#10;  L 81.20 110.03&#10;  Q 81.20 110.67 81.84 110.65&#10;  Q 87.12 110.52 91.26 111.03&#10;  Q 98.08 111.86 102.09 118.15&#10;  Q 105.03 122.76 105.78 125.99&#10;  Q 107.23 132.23 107.90 141.31&#10;  Q 108.36 147.52 102.06 152.49"/>
<path stroke="#95c0fe" d="&#10;  M 102.06 152.49&#10;  Q 97.06 156.50 90.79 159.30&#10;  Q 83.53 162.55 76.16 165.20&#10;  Q 74.92 165.65 74.92 164.33&#10;  L 74.92 157.66&#10;  A 0.56 0.56 0.0 0 0 74.36 157.10&#10;  Q 66.94 157.11 59.40 157.10&#10;  Q 53.64 157.09 51.27 156.28&#10;  C 44.90 154.10 39.78 148.94 39.88 141.74&#10;  Q 40.00 133.32 41.90 125.88&#10;  Q 43.55 119.41 48.17 114.88&#10;  C 52.78 110.36 59.18 110.29 65.49 110.66&#10;  Q 66.49 110.72 66.49 109.72&#10;  L 66.49 105.31&#10;  A 0.83 0.83 0.0 0 0 65.70 104.48&#10;  Q 59.59 104.14 55.47 104.92&#10;  Q 44.95 106.90 39.60 116.08&#10;  Q 36.94 120.65 36.03 125.03&#10;  Q 34.49 132.36 33.88 139.98&#10;  Q 33.19 148.50 38.48 154.49&#10;  Q 45.65 162.60 55.84 162.94&#10;  Q 61.52 163.12 68.71 163.09&#10;  A 0.46 0.46 0.0 0 1 69.17 163.55&#10;  L 69.17 173.51&#10;  A 0.47 0.47 0.0 0 0 69.82 173.94&#10;  Q 75.21 171.70 86.12 167.63&#10;  Q 96.59 163.72 105.44 157.57"/>
<path stroke="#3b99fc" d="&#10;  M 102.06 152.49&#10;  Q 104.56 154.56 105.44 157.57"/>
<path stroke="#9a9a9a" d="&#10;  M 180.34 120.96&#10;  Q 181.38 121.81 182.58 121.93&#10;  Q 185.21 122.20 182.96 120.92&#10;  Q 182.75 120.81 182.32 119.90&#10;  Q 182.02 119.26 182.04 118.74&#10;  Q 182.24 113.65 182.00 110.14&#10;  Q 181.83 107.68 180.10 106.85&#10;  Q 173.86 103.85 170.18 109.85&#10;  Q 169.85 110.38 170.56 110.88&#10;  Q 170.59 110.90 170.82 110.97&#10;  Q 171.79 111.27 172.33 110.41&#10;  C 174.12 107.60 177.38 106.74 179.54 109.63&#10;  A 2.08 2.08 0.0 0 1 178.34 112.90&#10;  C 176.25 113.37 173.26 112.82 171.56 113.99&#10;  Q 169.42 115.48 169.27 117.70&#10;  C 169.16 119.36 170.15 121.34 171.70 121.82&#10;  Q 175.37 122.95 179.51 120.87&#10;  Q 179.96 120.65 180.34 120.96"/>
<path stroke="#9a9a9a" d="&#10;  M 156.01 114.93&#10;  L 166.02 114.93&#10;  A 0.70 0.70 0.0 0 0 166.72 114.23&#10;  C 166.72 110.60 164.66 106.46 160.72 106.06&#10;  C 156.87 105.66 153.22 107.50 152.93 111.71&#10;  Q 152.76 114.19 152.90 116.70&#10;  C 153.09 120.30 154.76 122.08 158.61 122.29&#10;  Q 163.57 122.56 165.55 119.62&#10;  Q 165.91 119.09 165.79 117.94&#10;  Q 165.77 117.77 165.60 117.56&#10;  Q 164.88 116.65 164.22 117.61&#10;  Q 161.95 120.96 158.31 120.22&#10;  Q 155.12 119.57 154.99 115.99&#10;  Q 154.95 114.93 156.01 114.93"/>
<path stroke="#9a9a9a" d="&#10;  M 211.72 107.68&#10;  Q 211.79 107.41 211.70 106.89&#10;  Q 211.60 106.31 211.02 106.31&#10;  L 209.99 106.31&#10;  Q 209.28 106.31 209.28 107.03&#10;  L 209.28 121.49&#10;  Q 209.28 121.98 209.77 121.98&#10;  L 211.28 121.98&#10;  Q 211.79 121.98 211.79 121.48&#10;  L 211.91 113.01&#10;  Q 211.96 109.48 215.27 108.70&#10;  L 215.40 108.67&#10;  Q 218.80 107.86 218.87 111.18&#10;  L 219.07 121.33&#10;  Q 219.09 122.08 219.83 122.08&#10;  L 220.31 122.08&#10;  Q 221.05 122.08 221.05 121.40&#10;  L 221.05 112.68&#10;  Q 221.05 109.96 223.57 108.92&#10;  Q 224.23 108.66 224.79 108.58&#10;  Q 228.16 108.11 228.16 111.52&#10;  L 228.16 121.20&#10;  Q 228.16 122.06 229.01 122.06&#10;  L 230.03 122.06&#10;  Q 230.65 122.06 230.66 121.44&#10;  Q 230.77 115.14 230.73 111.01&#10;  Q 230.66 105.47 224.96 106.17&#10;  Q 223.03 106.40 221.42 107.90&#10;  Q 221.05 108.25 220.66 107.91&#10;  Q 216.55 104.25 212.24 107.82&#10;  Q 211.53 108.41 211.72 107.68"/>
<path stroke="#9a9a9a" d="&#10;  M 238.54 114.97&#10;  L 248.15 114.97&#10;  A 0.46 0.46 0.0 0 0 248.61 114.54&#10;  C 249.38 103.58 234.80 103.00 234.24 113.51&#10;  Q 234.06 116.80 235.32 119.39&#10;  Q 236.65 122.12 241.08 122.33&#10;  Q 246.09 122.56 247.97 118.97&#10;  Q 248.02 118.89 247.97 117.89&#10;  Q 247.96 117.66 247.80 117.54&#10;  Q 246.86 116.80 246.37 117.46&#10;  Q 243.57 121.27 239.61 119.86&#10;  Q 238.15 119.35 237.41 117.84&#10;  L 237.12 117.26&#10;  Q 236.00 114.97 238.54 114.97"/>
<path stroke="#9a9a9a" d="&#10;  M 204.8622 107.6633&#10;  A 0.84 0.84 0.0 0 0 204.0164 106.8292&#10;  L 203.7364 106.8312&#10;  A 0.84 0.84 0.0 0 0 202.9023 107.6770&#10;  L 202.9978 121.3567&#10;  A 0.84 0.84 0.0 0 0 203.8436 122.1908&#10;  L 204.1236 122.1888&#10;  A 0.84 0.84 0.0 0 0 204.9577 121.3430&#10;  L 204.8622 107.6633"/>
<path stroke="#d3b9ef" d="&#10;  M 62.04 142.97&#10;  L 83.19 143.01"/>
<path stroke="#b5a5e6" d="&#10;  M 83.19 143.01&#10;  Q 88.00 142.89 92.74 143.14&#10;  Q 95.27 143.28 97.35 141.89&#10;  Q 102.62 138.38 102.90 133.08&#10;  Q 103.16 128.13 99.52 124.87&#10;  Q 95.95 121.66 90.03 122.19"/>
<path stroke="#d3b9ef" d="&#10;  M 90.03 122.19&#10;  L 70.53 122.30"/>
<path stroke="#e7c5f4" d="&#10;  M 70.53 122.30&#10;  Q 56.92 121.54 53.15 122.34&#10;  Q 44.70 124.15 44.74 132.48&#10;  Q 44.78 142.28 54.74 142.94&#10;  Q 58.42 143.19 62.04 142.97"/>
<path stroke="#bb7fe4" d="&#10;  M 70.53 122.30&#10;  L 66.57 129.75"/>
<path stroke="#e7c5f4" d="&#10;  M 66.57 129.75&#10;  Q 63.84 126.28 59.96 128.24&#10;  Q 56.70 129.88 57.15 133.11&#10;  C 57.67 136.91 60.81 138.09 64.31 137.29"/>
<path stroke="#bb7fe4" d="&#10;  M 64.31 137.29&#10;  L 62.04 142.97"/>
<path stroke="#895fd6" d="&#10;  M 90.03 122.19&#10;  L 87.79 128.10"/>
<path stroke="#d3b9ef" d="&#10;  M 87.79 128.10&#10;  C 83.52 126.79 79.33 128.53 80.26 133.75&#10;  Q 80.99 137.87 86.04 137.46"/>
<path stroke="#895fd6" d="&#10;  M 86.04 137.46&#10;  L 83.19 143.01"/>
<path stroke="#d3b9ef" d="&#10;  M 64.31 137.29&#10;  Q 68.58 134.92 66.57 129.75"/>
<path stroke="#b5a5e6" d="&#10;  M 86.04 137.46&#10;  Q 89.84 136.92 90.25 133.00&#10;  Q 90.57 129.95 87.79 128.10"/>
<path stroke="#9a9a9a" d="&#10;  M 134.64 149.83&#10;  C 136.61 149.63 142.57 150.29 144.67 148.89&#10;  Q 146.91 147.42 147.13 143.84&#10;  Q 147.44 138.74 144.22 137.77&#10;  Q 143.09 137.43 138.62 137.25&#10;  Q 134.92 137.11 131.89 137.38&#10;  Q 131.37 137.42 131.37 137.95&#10;  L 131.37 158.02&#10;  Q 131.37 158.99 132.34 158.99&#10;  L 133.07 158.99&#10;  Q 133.86 158.99 133.87 158.20&#10;  L 133.96 150.25&#10;  Q 133.96 149.90 134.64 149.83"/>
<path stroke="#9a9a9a" d="&#10;  M 151.90 138.45&#10;  L 151.94 157.89&#10;  A 1.26 1.26 0.0 0 0 153.20 159.14&#10;  L 160.52 159.13&#10;  A 9.57 9.22 89.9 0 0 169.72 149.54&#10;  L 169.72 146.72&#10;  A 9.57 9.22 89.9 0 0 160.48 137.17&#10;  L 153.16 137.18&#10;  A 1.26 1.26 0.0 0 0 151.90 138.45"/>
<path stroke="#9a9a9a" d="&#10;  M 178.18 139.86&#10;  L 188.23 139.86&#10;  Q 189.05 139.86 189.05 139.04&#10;  L 189.05 138.25&#10;  A 0.96 0.96 0.0 0 0 188.09 137.29&#10;  L 174.74 137.29&#10;  A 0.59 0.58 -0.0 0 0 174.15 137.87&#10;  L 174.15 158.04&#10;  Q 174.15 158.97 175.08 158.97&#10;  L 176.05 158.97&#10;  Q 176.90 158.97 176.90 158.12&#10;  L 176.90 150.17&#10;  Q 176.90 148.97 178.09 148.97&#10;  L 187.19 148.97&#10;  A 0.35 0.33 24.2 0 0 187.40 148.90&#10;  L 188.06 148.41&#10;  A 0.62 0.59 -59.5 0 0 187.80 147.30&#10;  Q 182.93 146.88 178.39 147.15&#10;  A 1.51 1.50 -1.8 0 1 176.79 145.65&#10;  L 176.79 141.25&#10;  Q 176.79 139.86 178.18 139.86"/>
<path stroke="#9a9a9a" d="&#10;  M 134.44 103.31&#10;  L 134.40 109.67&#10;  A 0.57 0.57 0.0 0 0 134.96 110.24&#10;  L 141.81 110.29&#10;  A 4.12 3.58 0.4 0 0 145.96 106.74&#10;  L 145.96 106.40&#10;  A 4.12 3.58 0.4 0 0 141.87 102.79&#10;  L 135.02 102.74&#10;  A 0.57 0.57 0.0 0 0 134.44 103.31"/>
<path stroke="#9a9a9a" d="&#10;  M 179.81 114.94&#10;  Q 179.75 114.60 179.40 114.63&#10;  Q 175.89 114.96 173.63 115.46&#10;  Q 171.36 115.96 171.90 118.23&#10;  Q 171.92 118.30 171.92 118.32&#10;  A 2.83 2.27 -3.5 0 0 174.88 120.41&#10;  Q 180.74 120.08 179.81 114.94"/>
<path stroke="#9a9a9a" d="&#10;  M 155.19 113.17&#10;  L 163.85 113.21&#10;  A 0.21 0.21 0.0 0 0 164.06 113.00&#10;  L 164.06 112.89&#10;  A 4.48 4.44 -89.7 0 0 159.64 108.39&#10;  L 159.44 108.39&#10;  A 4.48 4.44 -89.7 0 0 154.98 112.85&#10;  L 154.98 112.96&#10;  A 0.21 0.21 0.0 0 0 155.19 113.17"/>
<path stroke="#9a9a9a" d="&#10;  M 237.27 113.23&#10;  L 245.81 113.15&#10;  A 0.26 0.26 0.0 0 0 246.06 112.88&#10;  L 246.06 112.73&#10;  A 4.59 4.53 89.4 0 0 241.48 108.19&#10;  L 241.48 108.19&#10;  A 4.59 4.53 89.4 0 0 237.00 112.83&#10;  L 237.00 112.98&#10;  A 0.26 0.26 0.0 0 0 237.27 113.23"/>
<path stroke="#9a9a9a" d="&#10;  M 133.89 140.12&#10;  L 133.85 146.84&#10;  A 0.48 0.48 0.0 0 0 134.32 147.33&#10;  L 141.08 147.37&#10;  A 3.40 3.29 0.4 0 0 144.51 144.11&#10;  L 144.51 143.01&#10;  A 3.40 3.29 0.4 0 0 141.14 139.69&#10;  L 134.38 139.65&#10;  A 0.48 0.48 0.0 0 0 133.89 140.12"/>
<path stroke="#9a9a9a" d="&#10;  M 154.74 140.31&#10;  L 154.66 155.83&#10;  A 0.78 0.78 0.0 0 0 155.44 156.61&#10;  L 160.20 156.64&#10;  A 7.22 6.72 -89.7 0 0 166.95 149.45&#10;  L 166.97 146.81&#10;  A 7.22 6.72 -89.7 0 0 160.28 139.56&#10;  L 155.52 139.53&#10;  A 0.78 0.78 0.0 0 0 154.74 140.31"/>
</g>
<path fill="#ffffff" d="&#10;  M 270.00 0.00&#10;  L 270.00 255.00&#10;  L 0.00 255.00&#10;  L 0.00 0.00&#10;  L 270.00 0.00&#10;  Z&#10;  M 73.79 87.92&#10;  Q 76.07 87.93 77.80 89.20&#10;  Q 82.92 92.97 80.43 99.79&#10;  A 0.09 0.09 0.0 0 0 80.51 99.92&#10;  Q 83.34 100.31 86.57 99.81&#10;  Q 86.80 99.78 86.84 99.55&#10;  Q 88.81 88.08 79.05 83.18&#10;  Q 77.06 82.18 73.79 82.18&#10;  Q 70.52 82.17 68.53 83.17&#10;  Q 58.77 88.06 60.72 99.53&#10;  Q 60.76 99.76 60.99 99.79&#10;  Q 64.22 100.29 67.05 99.91&#10;  A 0.09 0.09 0.0 0 0 67.13 99.78&#10;  Q 64.65 92.96 69.77 89.19&#10;  Q 71.51 87.93 73.79 87.92&#10;  Z&#10;  M 76.9448 95.6083&#10;  A 0.58 0.58 0.0 0 0 76.3628 95.0303&#10;  L 70.8028 95.0498&#10;  A 0.58 0.58 0.0 0 0 70.2248 95.6318&#10;  L 70.2752 110.0717&#10;  A 0.58 0.58 0.0 0 0 70.8572 110.6497&#10;  L 76.4172 110.6302&#10;  A 0.58 0.58 0.0 0 0 76.9952 110.0482&#10;  L 76.9448 95.6083&#10;  Z&#10;  M 189.7822 101.0278&#10;  A 0.68 0.68 0.0 0 0 189.1011 100.3490&#10;  L 187.9211 100.3510&#10;  A 0.68 0.68 0.0 0 0 187.2423 101.0322&#10;  L 187.2778 121.3722&#10;  A 0.68 0.68 0.0 0 0 187.9589 122.0510&#10;  L 189.1389 122.0490&#10;  A 0.68 0.68 0.0 0 0 189.8177 121.3678&#10;  L 189.7822 101.0278&#10;  Z&#10;  M 134.57 112.80&#10;  L 142.75 112.80&#10;  A 3.12 3.11 0.0 0 1 145.87 115.91&#10;  L 145.87 121.15&#10;  A 0.90 0.90 0.0 0 0 146.77 122.05&#10;  L 148.14 122.05&#10;  Q 148.63 122.05 148.66 121.55&#10;  C 148.87 117.98 148.88 114.54 146.27 111.84&#10;  Q 145.87 111.44 146.31 111.08&#10;  Q 149.59 108.41 148.59 104.90&#10;  C 148.09 103.15 146.31 101.37 144.56 101.16&#10;  Q 139.25 100.53 132.58 101.11&#10;  A 0.58 0.58 0.0 0 0 132.06 101.69&#10;  L 132.06 121.42&#10;  A 0.85 0.85 0.0 0 0 132.91 122.27&#10;  L 133.38 122.27&#10;  Q 133.94 122.27 133.94 121.71&#10;  L 133.94 113.43&#10;  Q 133.94 112.80 134.57 112.80&#10;  Z&#10;  M 205.09 102.03&#10;  A 1.06 1.06 0.0 0 0 204.03 100.97&#10;  A 1.06 1.06 0.0 0 0 202.97 102.03&#10;  A 1.06 1.06 0.0 0 0 204.03 103.09&#10;  A 1.06 1.06 0.0 0 0 205.09 102.03&#10;  Z&#10;  M 193.85 106.45&#10;  Q 193.34 106.32 192.84 106.37&#10;  A 0.59 0.59 0.0 0 0 192.30 106.96&#10;  L 192.30 108.11&#10;  Q 192.30 108.66 192.86 108.66&#10;  L 194.24 108.66&#10;  A 0.62 0.61 -89.1 0 1 194.85 109.30&#10;  Q 194.55 116.29 195.03 120.77&#10;  Q 195.16 122.00 196.39 121.99&#10;  Q 198.17 121.98 199.51 121.83&#10;  Q 200.05 121.77 200.01 120.99&#10;  Q 199.97 120.33 199.31 120.33&#10;  L 198.05 120.33&#10;  Q 197.15 120.33 197.15 119.43&#10;  L 197.15 109.29&#10;  A 0.64 0.63 0.0 0 1 197.79 108.66&#10;  L 199.07 108.66&#10;  A 0.83 0.83 0.0 0 0 199.90 107.83&#10;  L 199.90 107.11&#10;  Q 199.90 106.43 199.22 106.43&#10;  L 197.66 106.43&#10;  Q 197.00 106.43 197.00 105.77&#10;  L 197.00 102.95&#10;  A 1.03 1.03 0.0 0 0 195.97 101.92&#10;  L 195.37 101.92&#10;  Q 194.48 101.92 194.48 102.81&#10;  L 194.48 105.95&#10;  Q 194.48 106.60 193.85 106.45&#10;  Z&#10;  M 105.44 157.57&#10;  Q 115.11 150.12 113.58 138.29&#10;  Q 112.62 130.89 111.88 126.53&#10;  C 110.15 116.31 103.50 107.25 92.91 105.15&#10;  Q 87.92 104.16 81.74 104.40&#10;  A 0.57 0.57 0.0 0 0 81.20 104.97&#10;  L 81.20 110.03&#10;  Q 81.20 110.67 81.84 110.65&#10;  Q 87.12 110.52 91.26 111.03&#10;  Q 98.08 111.86 102.09 118.15&#10;  Q 105.03 122.76 105.78 125.99&#10;  Q 107.23 132.23 107.90 141.31&#10;  Q 108.36 147.52 102.06 152.49&#10;  Q 97.06 156.50 90.79 159.30&#10;  Q 83.53 162.55 76.16 165.20&#10;  Q 74.92 165.65 74.92 164.33&#10;  L 74.92 157.66&#10;  A 0.56 0.56 0.0 0 0 74.36 157.10&#10;  Q 66.94 157.11 59.40 157.10&#10;  Q 53.64 157.09 51.27 156.28&#10;  C 44.90 154.10 39.78 148.94 39.88 141.74&#10;  Q 40.00 133.32 41.90 125.88&#10;  Q 43.55 119.41 48.17 114.88&#10;  C 52.78 110.36 59.18 110.29 65.49 110.66&#10;  Q 66.49 110.72 66.49 109.72&#10;  L 66.49 105.31&#10;  A 0.83 0.83 0.0 0 0 65.70 104.48&#10;  Q 59.59 104.14 55.47 104.92&#10;  Q 44.95 106.90 39.60 116.08&#10;  Q 36.94 120.65 36.03 125.03&#10;  Q 34.49 132.36 33.88 139.98&#10;  Q 33.19 148.50 38.48 154.49&#10;  Q 45.65 162.60 55.84 162.94&#10;  Q 61.52 163.12 68.71 163.09&#10;  A 0.46 0.46 0.0 0 1 69.17 163.55&#10;  L 69.17 173.51&#10;  A 0.47 0.47 0.0 0 0 69.82 173.94&#10;  Q 75.21 171.70 86.12 167.63&#10;  Q 96.59 163.72 105.44 157.57&#10;  Z&#10;  M 180.34 120.96&#10;  Q 181.38 121.81 182.58 121.93&#10;  Q 185.21 122.20 182.96 120.92&#10;  Q 182.75 120.81 182.32 119.90&#10;  Q 182.02 119.26 182.04 118.74&#10;  Q 182.24 113.65 182.00 110.14&#10;  Q 181.83 107.68 180.10 106.85&#10;  Q 173.86 103.85 170.18 109.85&#10;  Q 169.85 110.38 170.56 110.88&#10;  Q 170.59 110.90 170.82 110.97&#10;  Q 171.79 111.27 172.33 110.41&#10;  C 174.12 107.60 177.38 106.74 179.54 109.63&#10;  A 2.08 2.08 0.0 0 1 178.34 112.90&#10;  C 176.25 113.37 173.26 112.82 171.56 113.99&#10;  Q 169.42 115.48 169.27 117.70&#10;  C 169.16 119.36 170.15 121.34 171.70 121.82&#10;  Q 175.37 122.95 179.51 120.87&#10;  Q 179.96 120.65 180.34 120.96&#10;  Z&#10;  M 156.01 114.93&#10;  L 166.02 114.93&#10;  A 0.70 0.70 0.0 0 0 166.72 114.23&#10;  C 166.72 110.60 164.66 106.46 160.72 106.06&#10;  C 156.87 105.66 153.22 107.50 152.93 111.71&#10;  Q 152.76 114.19 152.90 116.70&#10;  C 153.09 120.30 154.76 122.08 158.61 122.29&#10;  Q 163.57 122.56 165.55 119.62&#10;  Q 165.91 119.09 165.79 117.94&#10;  Q 165.77 117.77 165.60 117.56&#10;  Q 164.88 116.65 164.22 117.61&#10;  Q 161.95 120.96 158.31 120.22&#10;  Q 155.12 119.57 154.99 115.99&#10;  Q 154.95 114.93 156.01 114.93&#10;  Z&#10;  M 211.72 107.68&#10;  Q 211.79 107.41 211.70 106.89&#10;  Q 211.60 106.31 211.02 106.31&#10;  L 209.99 106.31&#10;  Q 209.28 106.31 209.28 107.03&#10;  L 209.28 121.49&#10;  Q 209.28 121.98 209.77 121.98&#10;  L 211.28 121.98&#10;  Q 211.79 121.98 211.79 121.48&#10;  L 211.91 113.01&#10;  Q 211.96 109.48 215.27 108.70&#10;  L 215.40 108.67&#10;  Q 218.80 107.86 218.87 111.18&#10;  L 219.07 121.33&#10;  Q 219.09 122.08 219.83 122.08&#10;  L 220.31 122.08&#10;  Q 221.05 122.08 221.05 121.40&#10;  L 221.05 112.68&#10;  Q 221.05 109.96 223.57 108.92&#10;  Q 224.23 108.66 224.79 108.58&#10;  Q 228.16 108.11 228.16 111.52&#10;  L 228.16 121.20&#10;  Q 228.16 122.06 229.01 122.06&#10;  L 230.03 122.06&#10;  Q 230.65 122.06 230.66 121.44&#10;  Q 230.77 115.14 230.73 111.01&#10;  Q 230.66 105.47 224.96 106.17&#10;  Q 223.03 106.40 221.42 107.90&#10;  Q 221.05 108.25 220.66 107.91&#10;  Q 216.55 104.25 212.24 107.82&#10;  Q 211.53 108.41 211.72 107.68&#10;  Z&#10;  M 238.54 114.97&#10;  L 248.15 114.97&#10;  A 0.46 0.46 0.0 0 0 248.61 114.54&#10;  C 249.38 103.58 234.80 103.00 234.24 113.51&#10;  Q 234.06 116.80 235.32 119.39&#10;  Q 236.65 122.12 241.08 122.33&#10;  Q 246.09 122.56 247.97 118.97&#10;  Q 248.02 118.89 247.97 117.89&#10;  Q 247.96 117.66 247.80 117.54&#10;  Q 246.86 116.80 246.37 117.46&#10;  Q 243.57 121.27 239.61 119.86&#10;  Q 238.15 119.35 237.41 117.84&#10;  L 237.12 117.26&#10;  Q 236.00 114.97 238.54 114.97&#10;  Z&#10;  M 204.8622 107.6633&#10;  A 0.84 0.84 0.0 0 0 204.0164 106.8292&#10;  L 203.7364 106.8312&#10;  A 0.84 0.84 0.0 0 0 202.9023 107.6770&#10;  L 202.9978 121.3567&#10;  A 0.84 0.84 0.0 0 0 203.8436 122.1908&#10;  L 204.1236 122.1888&#10;  A 0.84 0.84 0.0 0 0 204.9577 121.3430&#10;  L 204.8622 107.6633&#10;  Z&#10;  M 62.04 142.97&#10;  L 83.19 143.01&#10;  Q 88.00 142.89 92.74 143.14&#10;  Q 95.27 143.28 97.35 141.89&#10;  Q 102.62 138.38 102.90 133.08&#10;  Q 103.16 128.13 99.52 124.87&#10;  Q 95.95 121.66 90.03 122.19&#10;  L 70.53 122.30&#10;  Q 56.92 121.54 53.15 122.34&#10;  Q 44.70 124.15 44.74 132.48&#10;  Q 44.78 142.28 54.74 142.94&#10;  Q 58.42 143.19 62.04 142.97&#10;  Z&#10;  M 134.64 149.83&#10;  C 136.61 149.63 142.57 150.29 144.67 148.89&#10;  Q 146.91 147.42 147.13 143.84&#10;  Q 147.44 138.74 144.22 137.77&#10;  Q 143.09 137.43 138.62 137.25&#10;  Q 134.92 137.11 131.89 137.38&#10;  Q 131.37 137.42 131.37 137.95&#10;  L 131.37 158.02&#10;  Q 131.37 158.99 132.34 158.99&#10;  L 133.07 158.99&#10;  Q 133.86 158.99 133.87 158.20&#10;  L 133.96 150.25&#10;  Q 133.96 149.90 134.64 149.83&#10;  Z&#10;  M 151.90 138.45&#10;  L 151.94 157.89&#10;  A 1.26 1.26 0.0 0 0 153.20 159.14&#10;  L 160.52 159.13&#10;  A 9.57 9.22 89.9 0 0 169.72 149.54&#10;  L 169.72 146.72&#10;  A 9.57 9.22 89.9 0 0 160.48 137.17&#10;  L 153.16 137.18&#10;  A 1.26 1.26 0.0 0 0 151.90 138.45&#10;  Z&#10;  M 178.18 139.86&#10;  L 188.23 139.86&#10;  Q 189.05 139.86 189.05 139.04&#10;  L 189.05 138.25&#10;  A 0.96 0.96 0.0 0 0 188.09 137.29&#10;  L 174.74 137.29&#10;  A 0.59 0.58 -0.0 0 0 174.15 137.87&#10;  L 174.15 158.04&#10;  Q 174.15 158.97 175.08 158.97&#10;  L 176.05 158.97&#10;  Q 176.90 158.97 176.90 158.12&#10;  L 176.90 150.17&#10;  Q 176.90 148.97 178.09 148.97&#10;  L 187.19 148.97&#10;  A 0.35 0.33 24.2 0 0 187.40 148.90&#10;  L 188.06 148.41&#10;  A 0.62 0.59 -59.5 0 0 187.80 147.30&#10;  Q 182.93 146.88 178.39 147.15&#10;  A 1.51 1.50 -1.8 0 1 176.79 145.65&#10;  L 176.79 141.25&#10;  Q 176.79 139.86 178.18 139.86&#10;  Z"/>
<path fill="#4bb0fb" d="&#10;  M 73.79 82.18&#10;  Q 77.06 82.18 79.05 83.18&#10;  Q 88.81 88.08 86.84 99.55&#10;  Q 86.80 99.78 86.57 99.81&#10;  Q 83.34 100.31 80.51 99.92&#10;  A 0.09 0.09 0.0 0 1 80.43 99.79&#10;  Q 82.92 92.97 77.80 89.20&#10;  Q 76.07 87.93 73.79 87.92&#10;  Q 71.51 87.93 69.77 89.19&#10;  Q 64.65 92.96 67.13 99.78&#10;  A 0.09 0.09 0.0 0 1 67.05 99.91&#10;  Q 64.22 100.29 60.99 99.79&#10;  Q 60.76 99.76 60.72 99.53&#10;  Q 58.77 88.06 68.53 83.17&#10;  Q 70.52 82.17 73.79 82.18&#10;  Z"/>
<rect fill="#4bb0fb" x="-3.36" y="-7.80" transform="translate(73.61,102.84) rotate(-0.2)" width="6.72" height="15.60" rx="0.58"/>
<rect fill="#343434" x="-1.27" y="-10.85" transform="translate(188.53,111.20) rotate(-0.1)" width="2.54" height="21.70" rx="0.68"/>
<path fill="#343434" d="&#10;  M 133.94 113.43&#10;  L 133.94 121.71&#10;  Q 133.94 122.27 133.38 122.27&#10;  L 132.91 122.27&#10;  A 0.85 0.85 0.0 0 1 132.06 121.42&#10;  L 132.06 101.69&#10;  A 0.58 0.58 0.0 0 1 132.58 101.11&#10;  Q 139.25 100.53 144.56 101.16&#10;  C 146.31 101.37 148.09 103.15 148.59 104.90&#10;  Q 149.59 108.41 146.31 111.08&#10;  Q 145.87 111.44 146.27 111.84&#10;  C 148.88 114.54 148.87 117.98 148.66 121.55&#10;  Q 148.63 122.05 148.14 122.05&#10;  L 146.77 122.05&#10;  A 0.90 0.90 0.0 0 1 145.87 121.15&#10;  L 145.87 115.91&#10;  A 3.12 3.11 0.0 0 0 142.75 112.80&#10;  L 134.57 112.80&#10;  Q 133.94 112.80 133.94 113.43&#10;  Z&#10;  M 134.44 103.31&#10;  L 134.40 109.67&#10;  A 0.57 0.57 0.0 0 0 134.96 110.24&#10;  L 141.81 110.29&#10;  A 4.12 3.58 0.4 0 0 145.96 106.74&#10;  L 145.96 106.40&#10;  A 4.12 3.58 0.4 0 0 141.87 102.79&#10;  L 135.02 102.74&#10;  A 0.57 0.57 0.0 0 0 134.44 103.31&#10;  Z"/>
<circle fill="#343434" cx="204.03" cy="102.03" r="1.06"/>
<path fill="#343434" d="&#10;  M 194.48 105.95&#10;  L 194.48 102.81&#10;  Q 194.48 101.92 195.37 101.92&#10;  L 195.97 101.92&#10;  A 1.03 1.03 0.0 0 1 197.00 102.95&#10;  L 197.00 105.77&#10;  Q 197.00 106.43 197.66 106.43&#10;  L 199.22 106.43&#10;  Q 199.90 106.43 199.90 107.11&#10;  L 199.90 107.83&#10;  A 0.83 0.83 0.0 0 1 199.07 108.66&#10;  L 197.79 108.66&#10;  A 0.64 0.63 -0.0 0 0 197.15 109.29&#10;  L 197.15 119.43&#10;  Q 197.15 120.33 198.05 120.33&#10;  L 199.31 120.33&#10;  Q 199.97 120.33 200.01 120.99&#10;  Q 200.05 121.77 199.51 121.83&#10;  Q 198.17 121.98 196.39 121.99&#10;  Q 195.16 122.00 195.03 120.77&#10;  Q 194.55 116.29 194.85 109.30&#10;  A 0.62 0.61 -89.1 0 0 194.24 108.66&#10;  L 192.86 108.66&#10;  Q 192.30 108.66 192.30 108.11&#10;  L 192.30 106.96&#10;  A 0.59 0.59 0.0 0 1 192.84 106.37&#10;  Q 193.34 106.32 193.85 106.45&#10;  Q 194.48 106.60 194.48 105.95&#10;  Z"/>
<path fill="#ffffff" d="&#10;  M 134.44 103.31&#10;  A 0.57 0.57 0.0 0 1 135.02 102.74&#10;  L 141.87 102.79&#10;  A 4.12 3.58 0.4 0 1 145.96 106.40&#10;  L 145.96 106.74&#10;  A 4.12 3.58 0.4 0 1 141.81 110.29&#10;  L 134.96 110.24&#10;  A 0.57 0.57 0.0 0 1 134.40 109.67&#10;  L 134.44 103.31&#10;  Z"/>
<path fill="#2b81fc" d="&#10;  M 102.06 152.49&#10;  Q 104.56 154.56 105.44 157.57&#10;  Q 96.59 163.72 86.12 167.63&#10;  Q 75.21 171.70 69.82 173.94&#10;  A 0.47 0.47 0.0 0 1 69.17 173.51&#10;  L 69.17 163.55&#10;  A 0.46 0.46 0.0 0 0 68.71 163.09&#10;  Q 61.52 163.12 55.84 162.94&#10;  Q 45.65 162.60 38.48 154.49&#10;  Q 33.19 148.50 33.88 139.98&#10;  Q 34.49 132.36 36.03 125.03&#10;  Q 36.94 120.65 39.60 116.08&#10;  Q 44.95 106.90 55.47 104.92&#10;  Q 59.59 104.14 65.70 104.48&#10;  A 0.83 0.83 0.0 0 1 66.49 105.31&#10;  L 66.49 109.72&#10;  Q 66.49 110.72 65.49 110.66&#10;  C 59.18 110.29 52.78 110.36 48.17 114.88&#10;  Q 43.55 119.41 41.90 125.88&#10;  Q 40.00 133.32 39.88 141.74&#10;  C 39.78 148.94 44.90 154.10 51.27 156.28&#10;  Q 53.64 157.09 59.40 157.10&#10;  Q 66.94 157.11 74.36 157.10&#10;  A 0.56 0.56 0.0 0 1 74.92 157.66&#10;  L 74.92 164.33&#10;  Q 74.92 165.65 76.16 165.20&#10;  Q 83.53 162.55 90.79 159.30&#10;  Q 97.06 156.50 102.06 152.49&#10;  Z"/>
<path fill="#4bb0fb" d="&#10;  M 105.44 157.57&#10;  Q 104.56 154.56 102.06 152.49&#10;  Q 108.36 147.52 107.90 141.31&#10;  Q 107.23 132.23 105.78 125.99&#10;  Q 105.03 122.76 102.09 118.15&#10;  Q 98.08 111.86 91.26 111.03&#10;  Q 87.12 110.52 81.84 110.65&#10;  Q 81.20 110.67 81.20 110.03&#10;  L 81.20 104.97&#10;  A 0.57 0.57 0.0 0 1 81.74 104.40&#10;  Q 87.92 104.16 92.91 105.15&#10;  C 103.50 107.25 110.15 116.31 111.88 126.53&#10;  Q 112.62 130.89 113.58 138.29&#10;  Q 115.11 150.12 105.44 157.57&#10;  Z"/>
<path fill="#343434" d="&#10;  M 179.51 120.87&#10;  Q 175.37 122.95 171.70 121.82&#10;  C 170.15 121.34 169.16 119.36 169.27 117.70&#10;  Q 169.42 115.48 171.56 113.99&#10;  C 173.26 112.82 176.25 113.37 178.34 112.90&#10;  A 2.08 2.08 0.0 0 0 179.54 109.63&#10;  C 177.38 106.74 174.12 107.60 172.33 110.41&#10;  Q 171.79 111.27 170.82 110.97&#10;  Q 170.59 110.90 170.56 110.88&#10;  Q 169.85 110.38 170.18 109.85&#10;  Q 173.86 103.85 180.10 106.85&#10;  Q 181.83 107.68 182.00 110.14&#10;  Q 182.24 113.65 182.04 118.74&#10;  Q 182.02 119.26 182.32 119.90&#10;  Q 182.75 120.81 182.96 120.92&#10;  Q 185.21 122.20 182.58 121.93&#10;  Q 181.38 121.81 180.34 120.96&#10;  Q 179.96 120.65 179.51 120.87&#10;  Z&#10;  M 179.81 114.94&#10;  Q 179.75 114.60 179.40 114.63&#10;  Q 175.89 114.96 173.63 115.46&#10;  Q 171.36 115.96 171.90 118.23&#10;  Q 171.92 118.30 171.92 118.32&#10;  A 2.83 2.27 -3.5 0 0 174.88 120.41&#10;  Q 180.74 120.08 179.81 114.94&#10;  Z"/>
<path fill="#343434" d="&#10;  M 156.01 114.93&#10;  Q 154.95 114.93 154.99 115.99&#10;  Q 155.12 119.57 158.31 120.22&#10;  Q 161.95 120.96 164.22 117.61&#10;  Q 164.88 116.65 165.60 117.56&#10;  Q 165.77 117.77 165.79 117.94&#10;  Q 165.91 119.09 165.55 119.62&#10;  Q 163.57 122.56 158.61 122.29&#10;  C 154.76 122.08 153.09 120.30 152.90 116.70&#10;  Q 152.76 114.19 152.93 111.71&#10;  C 153.22 107.50 156.87 105.66 160.72 106.06&#10;  C 164.66 106.46 166.72 110.60 166.72 114.23&#10;  A 0.70 0.70 0.0 0 1 166.02 114.93&#10;  L 156.01 114.93&#10;  Z&#10;  M 155.19 113.17&#10;  L 163.85 113.21&#10;  A 0.21 0.21 0.0 0 0 164.06 113.00&#10;  L 164.06 112.89&#10;  A 4.48 4.44 -89.7 0 0 159.64 108.39&#10;  L 159.44 108.39&#10;  A 4.48 4.44 -89.7 0 0 154.98 112.85&#10;  L 154.98 112.96&#10;  A 0.21 0.21 0.0 0 0 155.19 113.17&#10;  Z"/>
<path fill="#343434" d="&#10;  M 212.24 107.82&#10;  Q 216.55 104.25 220.66 107.91&#10;  Q 221.05 108.25 221.42 107.90&#10;  Q 223.03 106.40 224.96 106.17&#10;  Q 230.66 105.47 230.73 111.01&#10;  Q 230.77 115.14 230.66 121.44&#10;  Q 230.65 122.06 230.03 122.06&#10;  L 229.01 122.06&#10;  Q 228.16 122.06 228.16 121.20&#10;  L 228.16 111.52&#10;  Q 228.16 108.11 224.79 108.58&#10;  Q 224.23 108.66 223.57 108.92&#10;  Q 221.05 109.96 221.05 112.68&#10;  L 221.05 121.40&#10;  Q 221.05 122.08 220.31 122.08&#10;  L 219.83 122.08&#10;  Q 219.09 122.08 219.07 121.33&#10;  L 218.87 111.18&#10;  Q 218.80 107.86 215.40 108.67&#10;  L 215.27 108.70&#10;  Q 211.96 109.48 211.91 113.01&#10;  L 211.79 121.48&#10;  Q 211.79 121.98 211.28 121.98&#10;  L 209.77 121.98&#10;  Q 209.28 121.98 209.28 121.49&#10;  L 209.28 107.03&#10;  Q 209.28 106.31 209.99 106.31&#10;  L 211.02 106.31&#10;  Q 211.60 106.31 211.70 106.89&#10;  Q 211.79 107.41 211.72 107.68&#10;  Q 211.53 108.41 212.24 107.82&#10;  Z"/>
<path fill="#343434" d="&#10;  M 238.54 114.97&#10;  Q 236.00 114.97 237.12 117.26&#10;  L 237.41 117.84&#10;  Q 238.15 119.35 239.61 119.86&#10;  Q 243.57 121.27 246.37 117.46&#10;  Q 246.86 116.80 247.80 117.54&#10;  Q 247.96 117.66 247.97 117.89&#10;  Q 248.02 118.89 247.97 118.97&#10;  Q 246.09 122.56 241.08 122.33&#10;  Q 236.65 122.12 235.32 119.39&#10;  Q 234.06 116.80 234.24 113.51&#10;  C 234.80 103.00 249.38 103.58 248.61 114.54&#10;  A 0.46 0.46 0.0 0 1 248.15 114.97&#10;  L 238.54 114.97&#10;  Z&#10;  M 237.27 113.23&#10;  L 245.81 113.15&#10;  A 0.26 0.26 0.0 0 0 246.06 112.88&#10;  L 246.06 112.73&#10;  A 4.59 4.53 89.4 0 0 241.48 108.19&#10;  L 241.48 108.19&#10;  A 4.59 4.53 89.4 0 0 237.00 112.83&#10;  L 237.00 112.98&#10;  A 0.26 0.26 0.0 0 0 237.27 113.23&#10;  Z"/>
<rect fill="#343434" x="-0.98" y="-7.68" transform="translate(203.93,114.51) rotate(-0.4)" width="1.96" height="15.36" rx="0.84"/>
<path fill="#ffffff" d="&#10;  M 237.27 113.23&#10;  A 0.26 0.26 0.0 0 1 237.00 112.98&#10;  L 237.00 112.83&#10;  A 4.59 4.53 89.4 0 1 241.48 108.19&#10;  L 241.48 108.19&#10;  A 4.59 4.53 89.4 0 1 246.06 112.73&#10;  L 246.06 112.88&#10;  A 0.26 0.26 0.0 0 1 245.81 113.15&#10;  L 237.27 113.23&#10;  Z"/>
<path fill="#ffffff" d="&#10;  M 155.19 113.17&#10;  A 0.21 0.21 0.0 0 1 154.98 112.96&#10;  L 154.98 112.85&#10;  A 4.48 4.44 -89.7 0 1 159.44 108.39&#10;  L 159.64 108.39&#10;  A 4.48 4.44 -89.7 0 1 164.06 112.89&#10;  L 164.06 113.00&#10;  A 0.21 0.21 0.0 0 1 163.85 113.21&#10;  L 155.19 113.17&#10;  Z"/>
<path fill="#ffffff" d="&#10;  M 179.81 114.94&#10;  Q 180.74 120.08 174.88 120.41&#10;  A 2.83 2.27 -3.5 0 1 171.92 118.32&#10;  Q 171.92 118.30 171.90 118.23&#10;  Q 171.36 115.96 173.63 115.46&#10;  Q 175.89 114.96 179.40 114.63&#10;  Q 179.75 114.60 179.81 114.94&#10;  Z"/>
<path fill="#cf8be9" d="&#10;  M 70.53 122.30&#10;  L 66.57 129.75&#10;  Q 63.84 126.28 59.96 128.24&#10;  Q 56.70 129.88 57.15 133.11&#10;  C 57.67 136.91 60.81 138.09 64.31 137.29&#10;  L 62.04 142.97&#10;  Q 58.42 143.19 54.74 142.94&#10;  Q 44.78 142.28 44.74 132.48&#10;  Q 44.70 124.15 53.15 122.34&#10;  Q 56.92 121.54 70.53 122.30&#10;  Z"/>
<path fill="#a772de" d="&#10;  M 90.03 122.19&#10;  L 87.79 128.10&#10;  C 83.52 126.79 79.33 128.53 80.26 133.75&#10;  Q 80.99 137.87 86.04 137.46&#10;  L 83.19 143.01&#10;  L 62.04 142.97&#10;  L 64.31 137.29&#10;  Q 68.58 134.92 66.57 129.75&#10;  L 70.53 122.30&#10;  L 90.03 122.19&#10;  Z"/>
<path fill="#6a4bcd" d="&#10;  M 83.19 143.01&#10;  L 86.04 137.46&#10;  Q 89.84 136.92 90.25 133.00&#10;  Q 90.57 129.95 87.79 128.10&#10;  L 90.03 122.19&#10;  Q 95.95 121.66 99.52 124.87&#10;  Q 103.16 128.13 102.90 133.08&#10;  Q 102.62 138.38 97.35 141.89&#10;  Q 95.27 143.28 92.74 143.14&#10;  Q 88.00 142.89 83.19 143.01&#10;  Z"/>
<path fill="#ffffff" d="&#10;  M 66.57 129.75&#10;  Q 68.58 134.92 64.31 137.29&#10;  C 60.81 138.09 57.67 136.91 57.15 133.11&#10;  Q 56.70 129.88 59.96 128.24&#10;  Q 63.84 126.28 66.57 129.75&#10;  Z"/>
<path fill="#ffffff" d="&#10;  M 87.79 128.10&#10;  Q 90.57 129.95 90.25 133.00&#10;  Q 89.84 136.92 86.04 137.46&#10;  Q 80.99 137.87 80.26 133.75&#10;  C 79.33 128.53 83.52 126.79 87.79 128.10&#10;  Z"/>
<path fill="#343434" d="&#10;  M 133.96 150.25&#10;  L 133.87 158.20&#10;  Q 133.86 158.99 133.07 158.99&#10;  L 132.34 158.99&#10;  Q 131.37 158.99 131.37 158.02&#10;  L 131.37 137.95&#10;  Q 131.37 137.42 131.89 137.38&#10;  Q 134.92 137.11 138.62 137.25&#10;  Q 143.09 137.43 144.22 137.77&#10;  Q 147.44 138.74 147.13 143.84&#10;  Q 146.91 147.42 144.67 148.89&#10;  C 142.57 150.29 136.61 149.63 134.64 149.83&#10;  Q 133.96 149.90 133.96 150.25&#10;  Z&#10;  M 133.89 140.12&#10;  L 133.85 146.84&#10;  A 0.48 0.48 0.0 0 0 134.32 147.33&#10;  L 141.08 147.37&#10;  A 3.40 3.29 0.4 0 0 144.51 144.11&#10;  L 144.51 143.01&#10;  A 3.40 3.29 0.4 0 0 141.14 139.69&#10;  L 134.38 139.65&#10;  A 0.48 0.48 0.0 0 0 133.89 140.12&#10;  Z"/>
<path fill="#343434" d="&#10;  M 151.90 138.45&#10;  A 1.26 1.26 0.0 0 1 153.16 137.18&#10;  L 160.48 137.17&#10;  A 9.57 9.22 89.9 0 1 169.72 146.72&#10;  L 169.72 149.54&#10;  A 9.57 9.22 89.9 0 1 160.52 159.13&#10;  L 153.20 159.14&#10;  A 1.26 1.26 0.0 0 1 151.94 157.89&#10;  L 151.90 138.45&#10;  Z&#10;  M 154.74 140.31&#10;  L 154.66 155.83&#10;  A 0.78 0.78 0.0 0 0 155.44 156.61&#10;  L 160.20 156.64&#10;  A 7.22 6.72 -89.7 0 0 166.95 149.45&#10;  L 166.97 146.81&#10;  A 7.22 6.72 -89.7 0 0 160.28 139.56&#10;  L 155.52 139.53&#10;  A 0.78 0.78 0.0 0 0 154.74 140.31&#10;  Z"/>
<path fill="#343434" d="&#10;  M 178.18 139.86&#10;  Q 176.79 139.86 176.79 141.25&#10;  L 176.79 145.65&#10;  A 1.51 1.50 -1.8 0 0 178.39 147.15&#10;  Q 182.93 146.88 187.80 147.30&#10;  A 0.62 0.59 -59.5 0 1 188.06 148.41&#10;  L 187.40 148.90&#10;  A 0.35 0.33 24.2 0 1 187.19 148.97&#10;  L 178.09 148.97&#10;  Q 176.90 148.97 176.90 150.17&#10;  L 176.90 158.12&#10;  Q 176.90 158.97 176.05 158.97&#10;  L 175.08 158.97&#10;  Q 174.15 158.97 174.15 158.04&#10;  L 174.15 137.87&#10;  A 0.59 0.58 -0.0 0 1 174.74 137.29&#10;  L 188.09 137.29&#10;  A 0.96 0.96 0.0 0 1 189.05 138.25&#10;  L 189.05 139.04&#10;  Q 189.05 139.86 188.23 139.86&#10;  L 178.18 139.86&#10;  Z"/>
<path fill="#ffffff" d="&#10;  M 154.74 140.31&#10;  A 0.78 0.78 0.0 0 1 155.52 139.53&#10;  L 160.28 139.56&#10;  A 7.22 6.72 -89.7 0 1 166.97 146.81&#10;  L 166.95 149.45&#10;  A 7.22 6.72 -89.7 0 1 160.20 156.64&#10;  L 155.44 156.61&#10;  A 0.78 0.78 0.0 0 1 154.66 155.83&#10;  L 154.74 140.31&#10;  Z"/>
<path fill="#ffffff" d="&#10;  M 133.89 140.12&#10;  A 0.48 0.48 0.0 0 1 134.38 139.65&#10;  L 141.14 139.69&#10;  A 3.40 3.29 0.4 0 1 144.51 143.01&#10;  L 144.51 144.11&#10;  A 3.40 3.29 0.4 0 1 141.08 147.37&#10;  L 134.32 147.33&#10;  A 0.48 0.48 0.0 0 1 133.85 146.84&#10;  L 133.89 140.12&#10;  Z"/>
</svg>